<?xml version="1.0" encoding="UTF-8" standalone="no"?>
<!DOCTYPE svg PUBLIC "-//W3C//DTD SVG 1.1//EN" "http://www.w3.org/Graphics/SVG/1.1/DTD/svg11.dtd">
<svg width="100%" height="100%" viewBox="0 0 48 48" version="1.1" xmlns="http://www.w3.org/2000/svg" xmlns:xlink="http://www.w3.org/1999/xlink" xml:space="preserve" xmlns:serif="http://www.serif.com/" style="fill-rule:evenodd;clip-rule:evenodd;stroke-linejoin:round;stroke-miterlimit:1.41421;">
    <rect x="0" y="0" width="48" height="48" style="fill:none;"/>
    <path d="M40,12L24,12L20,8L8,8C5.8,8 4.02,9.8 4.02,12L4,36C4,38.2 5.8,40 8,40L40,40C42.2,40 44,38.2 44,36L44,16C44,13.8 42.2,12 40,12ZM40,36L8,36L8,16L40,16L40,36Z" style="fill:white;fill-rule:nonzero;"/>
    <g transform="matrix(0.375,0,0,0.375,23.3325,25.8179)">
        <g transform="matrix(1,0,0,1,-24,-24)">
            <rect x="0" y="0" width="48" height="48" style="fill:none;"/>
            <path d="M24,4C12.96,4 4,12.96 4,24C4,35.04 12.96,44 24,44C35.04,44 44,35.04 44,24C44,12.96 35.04,4 24,4ZM24,40C15.16,40 8,32.84 8,24C8,20.3 9.26,16.9 11.38,14.2L33.8,36.62C31.1,38.74 27.7,40 24,40ZM36.62,33.8L14.2,11.38C16.9,9.26 20.3,8 24,8C32.84,8 40,15.16 40,24C40,27.7 38.74,31.1 36.62,33.8Z" style="fill:white;fill-rule:nonzero;"/>
        </g>
    </g>
</svg>
